<svg version="1.1" id="Layer_1" xmlns="http://www.w3.org/2000/svg" xmlns:xlink="http://www.w3.org/1999/xlink" x="0px" y="0px"
	 width="100%" viewBox="0 0 1024 1024" enable-background="new 0 0 1024 1024" xml:space="preserve">
<path fill="#FFFFFF" opacity="1.000000" stroke="none" 
	d="
M817.161621,438.908936 
	C807.122925,481.869141 788.227295,520.769470 768.365662,559.310059 
	C750.265137,594.433350 729.745117,628.154053 708.902100,661.653992 
	C687.525330,696.011780 665.553345,730.015076 643.158691,763.719604 
	C615.599243,805.197144 587.316650,846.194031 559.379211,887.420837 
	C545.551636,907.826111 531.807861,928.288086 517.992126,948.701416 
	C516.711609,950.593567 515.770935,952.844116 512.831848,954.194336 
	C508.715057,949.829224 505.645630,944.509155 502.241882,939.515320 
	C487.140350,917.359863 472.313812,895.016907 457.194122,872.873962 
	C428.171448,830.370056 399.460815,787.659607 371.059204,744.737000 
	C351.204865,714.731750 331.700134,684.505249 312.869843,653.856628 
	C282.867828,605.024597 253.823959,555.636658 230.975967,502.922546 
	C218.624390,474.425385 208.921280,445.082794 204.975372,414.122498 
	C202.378189,393.744537 202.555176,373.358337 204.492294,352.863342 
	C207.093964,325.337158 213.081879,298.676941 222.785248,272.860962 
	C243.905197,216.670898 278.449707,170.421539 326.408539,134.301743 
	C366.639587,104.002045 411.646545,84.483215 461.281799,76.035507 
	C493.975281,70.471222 526.737488,70.178337 559.652466,75.328789 
	C608.408752,82.958038 652.847778,100.621078 693.076599,129.291962 
	C738.785645,161.868591 773.355164,203.525833 796.375305,254.635162 
	C809.713379,284.248474 818.088989,315.293457 821.472473,347.684174 
	C824.659973,378.198547 824.080261,408.477875 817.161621,438.908936 
M670.285461,552.771851 
	C670.856140,552.166016 671.400146,551.532349 672.001221,550.958313 
	C711.508057,513.227844 735.876099,467.687317 744.067810,413.426788 
	C748.849487,381.754028 746.728455,350.538483 738.245117,320.000763 
	C723.964661,268.594971 695.394958,226.567505 652.364075,194.566437 
	C614.833923,166.656128 572.741333,151.259247 526.162109,148.481949 
	C498.866791,146.854462 471.919830,149.871078 445.786041,158.146103 
	C395.482880,174.074142 354.377777,202.806976 323.576721,246.064468 
	C297.984772,282.006256 283.895538,322.016510 280.522064,365.760010 
	C278.445007,392.692902 281.425018,419.310730 289.321198,445.216187 
	C306.730713,502.332825 340.506500,547.236816 391.028259,579.076355 
	C419.958344,597.308594 451.470886,608.969116 485.658051,613.050415 
	C512.040222,616.199890 538.278198,615.499878 564.036316,609.219238 
	C603.886841,599.502319 639.401794,581.139893 670.285461,552.771851 
z"/>
<path fill="#FFFFFF" opacity="1.000000" stroke="none" 
	d="
M316.764008,346.100159 
	C322.609558,316.937866 332.865906,290.073608 350.254669,266.234467 
	C383.448608,220.727173 427.617157,192.352127 483.400299,184.035553 
	C542.158691,175.275375 595.112793,190.296967 641.020752,228.074951 
	C670.778259,252.562637 692.412964,283.308105 703.105774,320.458862 
	C725.614380,398.661621 708.315674,467.310181 650.152039,524.606750 
	C618.806458,555.484985 580.462463,573.477478 536.881714,579.016052 
	C495.370972,584.291687 455.993591,576.176514 419.268921,556.050781 
	C384.204315,536.834839 357.035583,509.569702 337.701996,474.569092 
	C324.396698,450.481750 317.074219,424.630585 314.517212,397.236359 
	C312.923950,380.167419 314.402527,363.364807 316.764008,346.100159 
M442.039459,322.461304 
	C452.124725,332.954498 460.930603,344.463684 467.997864,357.154541 
	C473.141113,366.390411 476.489044,376.158081 474.504700,387.231018 
	C472.342712,399.295502 466.283569,409.304565 459.189880,418.821991 
	C450.654846,430.273346 442.697083,442.362732 429.377594,449.151184 
	C428.497040,449.599945 427.736969,450.321259 427.898407,451.857788 
	C430.611572,453.889008 434.545898,454.068329 437.153748,456.948853 
	C439.739166,459.804596 439.673737,464.080444 442.411591,466.550415 
	C444.266266,466.313660 444.644440,465.113007 444.998596,464.040802 
	C446.787231,458.625671 450.420319,454.586121 454.509186,450.813934 
	C465.964905,440.245575 478.649048,431.440155 492.484833,424.306213 
	C502.034760,419.382172 512.183899,418.464264 522.611389,420.523834 
	C533.868896,422.747375 543.184937,429.095978 552.186890,435.618622 
	C563.809998,444.040436 576.747681,451.357758 582.410950,465.837006 
	C582.636780,466.414368 583.242859,466.907776 584.241943,466.497925 
	C586.258179,463.481842 586.622498,459.450989 589.484802,456.608673 
	C592.343140,453.770355 596.482178,453.290222 600.409973,450.666595 
	C595.846558,447.676941 591.363281,446.249481 587.916809,443.074341 
	C575.149963,431.312744 565.074524,417.446655 556.794128,402.365387 
	C548.011108,386.368622 549.094788,370.252502 559.149353,355.119110 
	C570.137390,338.580688 580.817139,321.634918 599.304504,311.523010 
	C596.197693,308.644348 591.771851,308.203308 588.868164,305.008972 
	C586.113525,301.978607 586.602234,297.208374 582.977539,294.206451 
	C580.865845,298.556854 580.097900,302.737518 577.093506,305.868591 
	C565.930298,317.502686 553.033386,326.842194 539.178284,334.952942 
	C536.687378,336.411102 534.696289,336.443970 533.907349,333.185760 
	C533.077148,329.757050 530.830261,328.264862 527.484192,327.957184 
	C517.851379,327.071472 508.226410,327.004944 498.598175,328.031006 
	C495.657593,328.344330 493.472656,329.705566 492.656677,332.577698 
	C491.573059,336.391907 489.485962,336.102417 486.643921,334.550201 
	C479.905396,330.869965 473.295807,326.941864 467.339813,322.124512 
	C457.960968,314.538635 447.482025,307.809692 443.729980,295.231415 
	C443.671478,295.035339 443.167267,294.972198 442.465515,294.675598 
	C440.366791,297.914703 439.744232,301.922821 437.516541,305.167603 
	C435.092285,308.698639 430.314819,308.387360 426.884186,312.423401 
	C433.505951,313.637634 437.516968,317.807495 442.039459,322.461304 
M458.782471,506.686920 
	C463.135620,510.040588 467.451385,513.444519 471.859741,516.723999 
	C473.707184,518.098328 475.829041,519.854736 478.112976,517.799500 
	C480.510223,515.642334 478.772003,513.371216 477.393066,511.599030 
	C466.072235,497.049774 456.093292,481.208740 439.419739,471.744385 
	C436.871765,470.298065 435.384430,468.359100 435.066895,465.043945 
	C434.738617,461.616821 432.411072,458.593079 428.576630,458.492798 
	C424.546509,458.387421 423.128479,455.949036 421.887421,452.901642 
	C420.256287,448.896454 418.873260,444.717865 415.876709,441.474548 
	C406.433685,431.253723 395.102753,423.270508 384.064178,414.953949 
	C382.513458,413.785614 380.609924,412.405426 378.694397,414.306061 
	C376.710571,416.274536 377.708496,418.213440 379.115723,420.090179 
	C390.304779,435.012207 400.887024,450.517212 417.659912,460.047516 
	C419.835999,461.283936 421.088379,462.835999 421.130463,465.585938 
	C421.196594,469.909821 423.831757,472.308380 428.042847,472.645142 
	C430.336914,472.828644 431.871918,473.664886 432.585815,475.811371 
	C437.092529,489.361176 447.389069,498.029694 458.782471,506.686920 
M551.871216,507.367767 
	C550.916992,508.733063 549.902405,510.060760 549.023132,511.472717 
	C547.790710,513.451660 546.204224,515.537537 548.592712,517.701782 
	C550.771057,519.675537 552.609131,518.133728 554.346375,516.807190 
	C558.714600,513.471863 563.059143,510.105316 567.403137,506.738342 
	C578.279846,498.307831 588.606445,489.395203 593.537354,475.936768 
	C594.358582,473.695251 595.930908,472.966522 598.105347,472.784241 
	C603.036133,472.370850 605.778076,469.762177 605.563965,464.681549 
	C605.481567,462.724762 606.223694,461.550262 607.793213,460.619843 
	C624.284241,450.843781 635.265869,435.668915 646.664673,420.906128 
	C647.990540,419.188904 649.708130,417.389709 647.458374,415.270874 
	C645.523315,413.448364 643.415833,414.158325 641.529358,415.494995 
	C638.132202,417.902008 634.709961,420.286072 631.447693,422.868591 
	C620.238647,431.741974 608.255981,439.940918 603.481689,454.533417 
	C602.700928,456.919891 600.977966,458.161652 598.229736,458.354034 
	C594.067688,458.645355 591.288574,461.000610 591.271667,465.347961 
	C591.259277,468.530670 589.634521,470.086487 587.229797,471.606079 
	C581.889709,474.980530 576.567383,478.377899 572.182983,483.064728 
	C565.119019,490.615997 558.669983,498.669250 551.871216,507.367767 
M637.167664,343.331085 
	C638.929382,344.585693 640.623474,345.953400 642.473145,347.061127 
	C644.114319,348.043945 645.974731,349.637451 647.812500,347.561340 
	C649.486450,345.670319 648.395691,343.750427 647.159973,342.126678 
	C635.883606,327.309296 625.340393,311.781647 608.813416,301.980530 
	C606.669434,300.709045 605.529663,299.149719 605.506165,296.383575 
	C605.472473,292.416626 603.070496,289.485657 599.072205,289.483398 
	C595.002686,289.481079 593.600830,287.292511 592.340332,284.165680 
	C584.686340,265.178894 567.551575,255.665756 552.299622,244.289795 
	C551.078857,243.379272 549.524414,242.930328 548.166382,244.191864 
	C546.675415,245.576889 547.052368,247.243698 547.841003,248.779892 
	C548.444153,249.954819 549.244568,251.046204 550.067139,252.088074 
	C561.294250,266.309479 571.772705,281.268982 587.980957,290.592072 
	C590.150574,291.840088 591.267944,293.673401 591.267273,296.317627 
	C591.266296,300.189789 593.390930,302.766754 597.178894,303.159180 
	C601.148926,303.570496 602.951111,305.899292 604.225647,309.203308 
	C607.817932,318.515717 614.198486,325.565887 622.115723,331.441833 
	C627.056396,335.108612 631.792297,339.051086 637.167664,343.331085 
M402.349060,332.840637 
	C411.447357,326.290894 418.904175,318.423065 422.707550,307.596619 
	C423.615143,305.013062 425.265900,303.714691 428.240936,303.492157 
	C432.200317,303.195984 434.682037,300.606232 434.866241,296.610321 
	C435.008240,293.530182 436.488831,291.652832 438.882904,290.205170 
	C453.773254,281.201172 464.164154,267.751953 474.470978,254.219284 
	C475.580475,252.762589 476.657837,251.280319 477.713684,249.784195 
	C478.880859,248.130325 479.186829,246.384872 477.781372,244.737823 
	C476.147003,242.822479 474.467804,243.848038 472.923462,244.918243 
	C470.324493,246.719269 467.710785,248.510971 465.225983,250.462845 
	C452.695770,260.305664 439.077423,269.153442 433.302307,285.222351 
	C432.379883,287.788849 430.425751,289.010071 427.640869,289.425354 
	C424.055206,289.960083 421.103577,291.972748 421.187714,295.874268 
	C421.267792,299.590149 419.245453,301.249146 416.563263,302.796661 
	C400.473602,312.080017 390.382721,327.111725 379.593628,341.461853 
	C378.253784,343.243927 377.287415,345.369904 379.188080,347.361115 
	C381.367767,349.644623 383.199005,347.692566 384.836548,346.450317 
	C390.538086,342.124969 396.149292,337.680542 402.349060,332.840637 
M412.030243,466.910370 
	C413.199524,477.353485 420.852264,483.710876 429.109436,480.164581 
	C425.736603,477.585602 421.485077,477.385803 418.736206,474.573059 
	C415.825104,471.594299 415.215454,467.505707 413.844971,463.843445 
	C412.250427,464.503296 412.288361,465.402954 412.030243,466.910370 
M604.864136,476.612488 
	C602.707520,478.389038 598.835083,477.047791 597.424805,480.495544 
	C602.322754,482.452148 607.151611,480.844147 610.721680,475.963043 
	C613.241516,472.517914 615.737305,468.927094 613.226624,463.037903 
	C610.556458,468.455872 610.435059,473.832794 604.864136,476.612488 
M614.552124,294.291077 
	C611.691956,283.943939 605.327026,279.158142 596.738342,281.902405 
	C605.626099,283.842590 611.317566,288.829681 611.891785,298.003815 
	C614.435364,297.361694 614.196960,295.997406 614.552124,294.291077 
M413.021362,289.683960 
	C412.197327,291.805878 411.380524,293.927673 413.533752,297.191223 
	C416.195892,289.487915 420.296417,284.005157 428.034729,282.209412 
	C421.200348,280.204559 417.050171,282.313995 413.021362,289.683960 
z"/>
</svg>