<svg xmlns="http://www.w3.org/2000/svg" xml:space="preserve" viewBox="0 0 960 1024"><path d="m480.9 175.1 54.8 83.5c2 3 3.4 3.4 6.8 2.4 17-5 33.7 7.3 34.8 25.1.8 12.4-2.4 22.8-13.3 29.8-3.3 2.1-2.2 4.8-1.6 7.5l16.2 72.6 23.7 103.7q.3 2 1.5 3.4c2 .2 2.8-1.3 3.7-2.3l70.4-77.9q2.6-3 5.5-5.8c3.8-3.2 8.6-1.4 9.5 3.4q1 5.2-2.7 9.2l-69.6 76.5c-2.3 2.6-5 5-6.6 8 .7 2 2.5 2.3 4 2.9l93.5 35.2a16 16 0 0 0 12 0q31-11.8 62.4-23c3.5-1.3 4.8-3.1 5-6.9 1.2-14.2 13.8-22.9 26-17.9 8.5 3.5 12 10.7 12.3 19.5.4 9.1-2.9 16.6-11.5 20.3-3.8 1.6-4.8 3.8-5.1 7.4q-6.2 71.3-38.4 135a375 375 0 0 1-77.3 102.5 370 370 0 0 1-210.6 99 367 367 0 0 1-154.1-13.1c-63.4-19.4-118-53-163-101.7a369 369 0 0 1-98.6-219.7q-2.6-31.2-.7-62.4 1.7-26.4 7.8-52.2c.8-3.6.1-5.7-2.8-8-15.8-12.3-13.2-39.6 4.4-48.8q5.4-3.1 11.5-2.6c3.7.4 5.4-1.2 6.7-4.5a360 360 0 0 1 55.9-93.6c45.8-56 103-96 171.8-118.9 24.5-8.1 49.4-14 75-16.6q28-2.8 56.4-2.1c3 0 5.3 1 7 3.8zM309.5 604l-10-36.2c-.8-3.2-2.2-4.6-5.7-4.7-10.1-.3-16.9-6.2-20.7-14.9-2-4.3-4.2-5-8.3-4.8l-94.8 4.8q-24.9 1.1-49.9 2c-1.3.1-2.7 0-3.6 2.1l5.3 11.9a11339 11339 0 0 1 83.8 181.4c1.4 3.2 3.3 4.6 6.8 4.5 9-.1 18-.8 27-1 25-.5 49.9-2.5 74.8-3.3 3 0 4-1 4-4 0-14 5.1-25.4 16.8-33.4 2.8-1.8 2.3-4 1.6-6.4zm172 14 99.4-90.7h-6.8c-22.3 1.2-44.5 2.9-66.8 3.7q-40.9 1.7-81.8 4.1-49.6 2.7-99.2 5c-2.7.2-4.4.9-5.1 3.7q-1.8 7.6-7.8 12.5c-3.3 2.6-3.5 5.5-2.4 9.3a8004 8004 0 0 1 36.8 132.7c.7 2.4 1 4.4 4.5 4a32 32 0 0 1 22.6 6.3c3.1 2.1 5 1.6 7.7-.7l98.9-90m-55.6 190.7 57.2 60.6c35-110.7 69.6-219.7 104.4-329.2l-1.8 1-69.7 63.7-85.3 77.7-40.2 36.8c-1.9 1.7-3.4 3.2-2.2 6.3q7.1 18.1-1.6 35.3c-2 3.8-.9 6 1.7 8.7zm-8.5-416.4-70.1-51.4c-1.9 1.3-1.8 2.7-2.1 4l-20.7 91.5-15.6 68.7c-.6 2.3-.6 4.1 1.7 5.6q6.8 4.6 9.6 12.4 1 2.8 4.2 2.5 28.6-2 57.4-2.8 18.2-.8 36.4-2l69.8-3.8q33.2-1.5 66.3-3.2c8-.5 16.1-1.3 25.7-2zm166 77-32.6-144.6c-.6-2.6-1.7-4-4.5-4.5a26 26 0 0 1-19.8-13.8c-1.3-2.5-3-2.8-5.7-2.3L381 329.4l-18.8 3.5-.3 1.4 227.8 167.3 1-.8zm-361.2-79.8-34.8-75.5-1.4.2c-23.1 73.7-47.3 147-71.3 221.2h5A2338 2338 0 0 0 191 532q37.6-2 75.3-3.3c2.7-.1 4.4-1 5.1-3.7a20 20 0 0 1 4.5-8.8c2.9-3 2.6-5.6 1-9zm50.2 79 15.6 33c1 2 1.1 5.4 5.1 4.8 3.7-.5 4.2-3 4.9-6l33.5-146.5q2-8.9 4-19C290 327.1 245.6 318 201 310.2l-1.2 1.2zm177.5-290-92 140 6-1 69.2-12.5q40.2-7.6 80.4-14.7c5.7-1 10.3-2 10.2-9.1 0-1.7 1-3.7 2-5.1 2.9-4 1.5-7.1-1-10.8l-62.9-96.7c-.6-1-1-2.5-3.6-2.7zm-41.5 39.5 29.6-44.6-.7-.6-227.5 123.9c4.4 2.3 8.3 2.1 12 2.8l114 20.6c3.5.7 5.4 0 7.3-3q32.3-49.2 65.3-99m283 342.3-84-31.9c-.4 1.5-.7 2-.7 2.7l3.3 91.4q1.3 40.9 2.3 81.9c0 2.1-.9 4.7 2.4 5.7s4.5-1 5.9-3.2L704 571.6c1-1.6 2.5-3.1 2-5.7zm-93.6 41.4c-1.4-15.6-.8-31.4-2.4-47.2l-94.1 296.8 1.3.6 84.7-98.5a8 8 0 0 0 2-7.2c-1.8-10.9-.5-21.1 8.4-28.8a9 9 0 0 0 3.3-7.9l-1-27q-1.3-39.6-2.2-80.8m98.6 6.2L664 660.1l-31.5 51c-1.7 2.7-2.3 4.8.5 7.3a20 20 0 0 1 6.4 11c.7 3.5 2.7 4.5 6 4.5 23.3.3 46.6 2.1 69.9 2 6.5 0 6.8 0 6.3-6.7-1.5-20-2.3-39.9-3.6-59.8-1.4-20.5-3.2-41.1-3.5-61.7-.1-8-1.4-16.1-2.2-25.4zM468.7 874q-4.1-5-8.5-9.8-39-40.8-77.8-81.8c-6.9-7.2-6.4-6.2-16-3.8-9 2.2-11.2 6.4-12 15-2.2 21.7-5.9 43.2-9 64.7-.6 3.7.7 5.5 4.3 6.5 36.7 10 74 12.7 111.9 10.9q3.4-.2 7-1.7M256.7 255l173.8-95.2c-1.5-1.2-3-.6-4.5-.6-17.1.4-34 2.9-51 5.9a337 337 0 0 0-91 30.2 18 18 0 0 0-6.4 4.7l-58.7 71.3c-1.1 1.4-2.5 2.7-2.7 5.6zm470.6 374.6 5 82.8 1.3.1 64.5-170c-2.6-1.8-4.2-.8-5.7-.2q-32 12-64.1 23.7c-4.2 1.5-5.1 3.8-4.8 7.9 1.4 18.2 2.5 36.5 3.8 55.7M275.5 808l59 48.7L337 835l6.7-50.4c.4-3-.2-5.3-3.6-6.6a30 30 0 0 1-15.6-13.5c-2-3.8-5-4.3-8.7-4a1493 1493 0 0 1-66.8 3.1c-7.9.2-15.8.3-24.8 2.1zm315.7-39.3-72.5 84.8.7.9L701.2 751c-1.2-.4-1.6-.7-2-.7l-56-2q-3.1-.1-4.6 2.9c-8.9 16.8-20.7 20.6-38 12.1q-3.4-1.8-5.6 1c-1 1.4-2.2 2.5-3.8 4.3M101.2 437v4l5.9 60 1.4 11.6h1l56.3-175q-2.5.5-3.4 1.9l-45.1 52.7a7 7 0 0 0-1.6 6.4c3.1 14.3.7 26.8-12.7 35.3q-1 .8-1.9 3.1M155 664.4 113.5 575c-.8 6.9.4 12.5.7 18.1l3.9 78.8c.1 3 1.3 4.9 3.5 6.7l60.4 51.6c.9.7 1.6 2.2 3.8 1.2zm-52.3-80.6q-.7-6.4-1-13c-.7-17.7-2.5-35.4-4-53.2-1.2-14.2-3.2-28.4-4.2-42.7-.7-11.3-2.4-22.6-3.8-34.6-18.2 45.5-9 166.8 16 208-1-21.2-2.8-42.3-3-64.5m33.9-256.7a263 263 0 0 0-26.9 52.5 3363 3363 0 0 0 134-160.7 364 364 0 0 0-107 108.1m124.1 501.6a222 222 0 0 0 41 19.4Q219 779.6 137 710c31.7 49.1 72 89.4 123.7 118.6m376-9.6a358 358 0 0 0 59.3-47.8A5808 5808 0 0 0 530.7 865a367 367 0 0 0 106-46m122.2-139.8-7.7 20.8c17.8-21.9 46.2-98 45.9-121.7z"/><path d="M738.2 335.5a38 38 0 0 1 31.2 37.9c.5 16.6-5.7 29.2-20.6 36.9a35.6 35.6 0 0 1-45.3-11.1 41 41 0 0 1 14.8-61 33 33 0 0 1 20-2.7m116.6-108a38 38 0 0 1-1.6 25.8 27 27 0 0 1-45.6 5.4 34 34 0 0 1-1.6-38.8 26 26 0 0 1 26.3-11.9c11.2 1.7 18.5 8.5 22.5 19.5m-13 77.5a32 32 0 0 1 9.3 32.7 27 27 0 0 1-20.8 20.8c-15.5 3.8-32.3-8.9-33.5-24.9-.6-8.5.6-16.6 5.8-23.7 9.6-12.8 25-14.8 39.2-4.8m-143.8-38.7c-2-8-2.9-15.8 1.2-23.1 3.9-7.2 10.2-11.2 18.2-11.1s14.3 4.2 17.8 11.7a26 26 0 0 1 1.3 21.2c-3.2 8.3-9 13.6-18.2 14.2-9.6.6-16.2-4-20.3-12.9m54.8-105.1c4.2-10 12.2-15.5 20.3-14.2a21 21 0 0 1 16.9 18.6c1.1 10.7-4.2 20.3-13 23.5-11.7 4.1-23.9-4.4-25.2-17.6-.3-3.3-.3-6.7 1-10.3m-35.7-73.5c-3.3 9.5-11 14.6-19.4 13.2-8.5-1.4-14.5-9.2-15.2-18.4-1-14 11-22.7 21.5-19.8 8.5 2.3 14.5 11 13.7 20.6z"/></svg>